<svg width="150" height="99" viewBox="0 0 150 99" fill="none" xmlns="http://www.w3.org/2000/svg">
<g filter="url(#filter0_d_14_109)">
<path d="M52.8411 65.4025C52.8411 69.2738 50.9472 72.6898 47.1595 75.6502C43.6244 78.4114 39.8788 79.792 35.9227 79.792C33.8465 79.792 31.8124 79.3508 29.8204 78.4684C28.3333 78.4684 27.2251 78.6107 26.4956 78.8954C27.1409 75.7926 27.4636 72.0493 27.4636 67.6655C27.4636 64.1642 27.3093 61.218 27.0006 58.8268C26.8323 57.6028 26.4114 56.5353 25.7381 55.6244C24.9805 54.7989 24.223 53.9591 23.4655 53.1052C26.3553 52.422 29.6801 51.8242 33.4397 51.3118L33.4818 53.0625C34.4918 52.8632 38.6583 51.9665 45.9812 50.3724C47.5243 52.1089 48.2959 53.7599 48.2959 55.3255C48.2959 56.9765 47.398 58.6133 45.6024 60.2359C44.1995 61.5169 42.5582 62.5701 40.6784 63.3956C44.6064 62.6555 48.366 61.8869 51.9573 61.0899C52.5465 62.5132 52.8411 63.9507 52.8411 65.4025ZM40.5942 56.5638C40.5942 55.0266 39.8367 54.258 38.3216 54.258C37.6202 54.258 36.0069 54.4715 33.4818 54.8985L33.6501 64.0361C35.3897 63.5807 36.9328 62.684 38.2795 61.3461C39.8227 59.8374 40.5942 58.2433 40.5942 56.5638ZM45.2236 66.5554C45.2236 66.0145 45.0132 65.6871 44.5923 65.5733C44.4521 65.5163 44.0312 65.4879 43.3298 65.4879C41.6183 65.4879 38.4058 65.8864 33.6922 66.6834C33.6922 70.4694 33.7483 74.0419 33.8606 77.4009C38.013 77.4578 41.2395 75.5221 43.5402 71.5938C43.9049 70.9676 44.2557 70.1563 44.5923 69.16C45.0132 68.0213 45.2236 67.1531 45.2236 66.5554Z" fill="#B70303"/>
<path d="M85.331 73.2164C83.3951 74.1842 81.4451 75.1663 79.4812 76.1626C76.5071 77.5859 74.6413 78.2976 73.8838 78.2976C72.3968 78.2976 70.9098 76.5042 69.4227 72.9175C68.8616 71.5227 68.0479 69.0319 66.9818 65.4452C63.3344 66.3846 60.0096 67.4663 57.0075 68.6903C56.6989 69.8574 56.5446 70.9249 56.5446 71.8927C56.5446 75.3371 58.4104 77.3867 62.142 78.0414C58.9154 79.2939 56.3622 79.9201 54.4824 79.9201C51.8731 79.9201 50.5685 78.7673 50.5685 76.4615C50.5685 74.355 51.6627 71.3661 53.8511 67.4947C52.6727 66.8969 51.298 65.8722 49.7268 64.4204C51.6066 64.1357 53.781 63.8653 56.25 63.6091C57.6809 61.4457 59.6589 59.0546 62.184 56.4357C64.3725 54.2438 66.5609 52.0377 68.7494 49.8173C69.3666 51.9808 69.9839 54.1299 70.6011 56.2649C71.3306 58.7414 72.0601 60.8621 72.7896 62.627C74.3046 62.5701 77.2506 62.4989 81.6275 62.4135C79.7758 62.7551 77.0121 63.2818 73.3367 63.9934C76.0582 70.3413 79.3268 73.5153 83.1426 73.5153C83.8721 73.5153 84.6016 73.4014 85.331 73.1737V73.2164ZM66.2242 62.8832C65.5509 60.4636 64.9336 58.0583 64.3725 55.6671C62.3524 57.859 60.5988 60.4209 59.1118 63.3529C60.683 63.2391 63.0538 63.0825 66.2242 62.8832Z" fill="#B70303"/>
<path d="M107.847 70.7399C101.197 75.7499 95.5157 78.2549 90.8021 78.2549C86.9583 78.2549 83.9843 77.0878 81.88 74.7536C79.8319 72.5047 78.8078 69.4162 78.8078 65.4879C78.8078 61.7588 79.7898 58.5422 81.7538 55.8379C83.7178 53.1336 86.4533 51.3118 89.9604 50.3724C90.9144 50.1162 91.8683 49.9881 92.8222 49.9881C96.3574 49.9881 100.019 51.753 103.807 55.2828C103.245 55.3397 101.885 55.966 99.7243 57.1616C98.0689 58.0725 96.4977 59.2681 95.0107 60.7483C94.8423 60.8906 94.688 60.9618 94.5477 60.9618C94.1549 60.9618 93.9585 60.791 93.9585 60.4494C93.9585 60.1647 94.1409 59.6808 94.5057 58.9976C94.8704 58.286 95.0528 57.8875 95.0528 57.8021C95.0528 57.2897 94.0147 56.6492 91.9384 55.8806C90.0306 55.169 88.6698 54.8131 87.8562 54.8131C86.1166 54.8131 84.7979 55.3682 83.9001 56.4784C83.0304 57.5601 82.5955 59.0119 82.5955 60.8337C82.5955 64.3065 83.83 67.3097 86.299 69.8432C88.7961 72.3482 91.7561 73.6007 95.179 73.6007C98.9387 73.6007 102.979 72.1205 107.3 69.16L107.847 70.7399Z" fill="#B70303"/>
<path d="M130.741 80.5606L129.857 81.5C124.302 75.636 118.663 71.4088 112.939 68.8184C112.939 70.1563 112.981 72.6186 113.065 76.2053C111.578 76.8031 109.123 77.6998 105.7 78.8954C106.318 75.7926 106.626 72.0066 106.626 67.5374C106.626 64.0076 106.486 61.1041 106.205 58.8268C106.065 57.6313 105.63 56.5923 104.901 55.7098C104.171 54.8274 103.428 53.9591 102.67 53.1052C105.588 52.422 108.913 51.8242 112.644 51.3118C112.644 54.5285 112.715 58.7699 112.855 64.0361C114.651 63.5522 116.32 62.6128 117.863 61.218C119.631 59.6239 120.514 57.9871 120.514 56.3076C120.514 54.8274 119.827 53.8168 118.452 53.276V51.8242C120.949 51.3118 123.18 50.8279 125.144 50.3724C126.715 52.1658 127.501 53.831 127.501 55.3682C127.501 57.1616 126.42 58.9407 124.26 60.7056C122.633 62.0435 120.753 63.1252 118.621 63.9507C122.633 68.5907 126.673 74.1273 130.741 80.5606Z" fill="#B70303"/>
<path d="M74.4898 11.7384L57.7903 60.8593H50.2486L33.4818 11.7384H40.4848L53.9521 52.0462H54.2888L67.6888 11.7384H74.4898Z" fill="#F2F2F2"/>
<path d="M107.019 47.3323C107.019 52.2056 105.38 55.8037 102.103 58.1266C98.8261 60.4494 94.4043 61.6108 88.8378 61.6108C86.6381 61.6108 84.4385 61.3831 82.2388 60.9276C80.0391 60.5177 78.1313 60.0623 76.5152 59.5613V52.7977C76.9192 52.9344 77.5028 53.1849 78.2659 53.5492C79.0291 53.9136 79.9494 54.2552 81.0267 54.574C82.1041 54.9384 83.3386 55.2572 84.7303 55.5305C86.1219 55.8037 87.6931 55.9404 89.4438 55.9404C90.7906 55.9404 92.0924 55.8265 93.3493 55.5988C94.6512 55.3255 95.7959 54.8701 96.7835 54.2324C97.7711 53.6403 98.5567 52.8433 99.1403 51.8413C99.7239 50.8393 100.016 49.5868 100.016 48.0838C100.016 46.6718 99.7239 45.4877 99.1403 44.5312C98.6016 43.5292 97.9282 42.6638 97.1202 41.9351C96.2673 41.2519 95.3246 40.6598 94.2921 40.1588C93.2596 39.6123 92.2495 39.0657 91.2619 38.5192C89.7356 37.7905 88.0747 36.9706 86.279 36.0597C84.4834 35.1488 82.8224 34.124 81.2961 32.9854C79.7698 31.8012 78.4904 30.4804 77.4579 29.0229C76.4703 27.5199 75.9765 25.7892 75.9765 23.8307C75.9765 19.4128 77.4579 16.1563 80.4207 14.0612C83.4284 11.9661 87.2666 10.9186 91.9353 10.9186C93.0576 10.9186 94.2023 11.0096 95.3695 11.1918C96.5366 11.374 97.6589 11.579 98.7363 11.8067C99.8137 12.0344 100.801 12.2621 101.699 12.4899C102.597 12.6721 103.338 12.8087 103.921 12.8998V19.4584C103.023 19.0484 101.452 18.5247 99.2077 17.887C96.9631 17.2038 94.3819 16.7939 91.4639 16.6573C88.95 16.6573 86.9075 17.2266 85.3363 18.3653C83.81 19.5039 83.0468 21.1663 83.0468 23.3525C83.0468 24.309 83.2489 25.1516 83.6529 25.8803C84.1018 26.609 84.6629 27.2694 85.3363 27.8615C86.0545 28.4536 86.8626 29.0002 87.7604 29.5012C88.7031 30.0022 89.6683 30.5259 90.6559 31.0725L95.7735 33.5319C96.8509 34.2151 98.018 34.8983 99.275 35.5815C100.577 36.2191 101.789 37.0162 102.911 37.9726C104.033 38.9746 104.976 40.2271 105.739 41.7302C106.502 43.1876 106.929 45.055 107.019 47.3323Z" fill="#F2F2F2"/>
<path d="M33.608 9.59489C28.1089 10.8759 25.1769 11.5733 24.8122 11.6871C21.4734 12.5127 18.5976 13.3951 16.1847 14.3345C16.2408 17.4088 16.3109 22.0203 16.3951 28.169C15.6095 28.4536 14.389 28.5959 12.7337 28.5959C11.0783 28.5959 9.85783 28.7383 9.07224 29.0229C9.66143 25.9486 9.95603 22.2338 9.95603 17.8785C9.95603 16.9106 9.942 15.8432 9.91394 14.6761C8.96001 14.0783 7.79564 13.0535 6.42085 11.6017L9.7456 11.0894C9.71755 10.6054 9.66143 9.89378 9.57726 8.9544C9.46503 7.7873 9.04418 6.73405 8.3147 5.79468C7.5291 4.9407 6.75754 4.08672 6 3.23274C8.88987 2.54955 12.2146 1.95177 15.9742 1.43938C15.9742 1.8379 15.9883 2.43569 16.0163 3.23274L28.5999 0.5C29.638 1.69557 30.3113 2.83421 30.62 3.91592L23.2129 6.94755V6.69135C23.2691 5.15419 22.3291 4.38561 20.3932 4.38561C20.0285 4.38561 18.5835 4.5991 16.0584 5.02609C16.0584 6.79099 16.0865 8.58434 16.1426 10.4062C19.5094 10.093 25.3312 9.82261 33.608 9.59489Z" fill="#2F5DFF"/>
<path d="M56.1237 30.6882L55.1979 31.6276C49.6426 25.7636 44.0031 21.5364 38.2795 18.946C38.2795 20.2839 38.3216 22.7462 38.4058 26.3329C35.8245 27.3292 33.3696 28.2259 31.0408 29.0229C31.6581 25.8917 31.9667 22.0915 31.9667 17.6223C31.9667 14.0356 31.8264 11.1463 31.5459 8.9544C31.3775 7.73036 30.9567 6.67712 30.2833 5.79468C29.5258 4.9407 28.7682 4.08672 28.0107 3.23274C31.0689 2.52109 34.3936 1.9233 37.9849 1.43938L38.027 3.19004C39.0371 2.99077 43.2035 2.0941 50.5264 0.5C52.0976 2.26489 52.8832 3.93015 52.8832 5.49578C52.8832 7.28914 51.803 9.06827 49.6426 10.8332C47.9872 12.1426 46.0934 13.2243 43.9611 14.0783C47.8329 18.5474 51.8871 24.0841 56.1237 30.6882ZM45.0974 6.81945C45.0974 5.19689 44.3539 4.38561 42.8668 4.38561C42.1654 4.38561 40.5521 4.5991 38.027 5.02609C38.027 5.11149 38.0831 8.15735 38.1954 14.1637C39.8788 13.7082 41.4079 12.8115 42.7827 11.4736C44.3258 9.99341 45.0974 8.44201 45.0974 6.81945Z" fill="#2F5DFF"/>
<path d="M80.6595 13.0962C80.6595 17.1099 78.9621 20.5401 75.5672 23.3867C72.3407 26.0625 68.7073 27.4004 64.6671 27.4004C61.4125 27.4004 58.6208 26.461 56.2921 24.5822C53.8231 22.5611 52.5886 19.928 52.5886 16.6829C52.5886 12.6692 54.286 9.25329 57.6809 6.43516C60.8513 3.78782 64.4707 2.46415 68.5389 2.46415C71.7655 2.46415 74.5431 3.3893 76.8719 5.23959C79.397 7.26067 80.6595 9.87955 80.6595 13.0962ZM74.1784 16.4267C74.1784 13.7794 73.491 11.3028 72.1162 8.9971C70.545 6.3213 68.5249 4.98339 66.0559 4.98339C63.9797 4.98339 62.3243 6.00817 61.0898 8.05772C60.0237 9.79415 59.4906 11.7868 59.4906 14.0356C59.4906 16.626 60.178 19.0598 61.5528 21.3371C63.124 23.9275 65.13 25.2227 67.571 25.2227C69.6753 25.2227 71.3446 24.2549 72.5791 22.3192C73.6453 20.6397 74.1784 18.6755 74.1784 16.4267Z" fill="#2F5DFF"/>
<path d="M106.837 26.3329C104.255 27.3292 101.8 28.2259 99.4717 29.0229C99.8926 27.0588 100.159 24.6107 100.271 21.6787C97.6901 17.5796 94.0287 13.8079 89.2871 10.3635C89.3432 17.0814 89.4273 23.0166 89.5396 28.169C88.754 28.4251 87.5335 28.5532 85.8781 28.5532C84.2228 28.5817 83.0023 28.7383 82.2167 29.0229C82.834 25.9201 83.1426 22.1911 83.1426 17.8358C83.1426 14.3345 82.9883 11.374 82.6796 8.9544C82.5113 7.73036 82.0905 6.66289 81.4171 5.75198C80.6595 4.92646 79.902 4.08672 79.1445 3.23274C82.2027 2.52109 85.5274 1.9233 89.1187 1.43938C90.1568 2.94808 91.9384 5.65235 94.4636 9.55219C95.4736 11.1463 96.4977 12.7261 97.5358 14.2918C98.7142 16.1421 99.6541 17.7646 100.356 19.1595V17.5796C100.384 14.0498 100.257 11.1747 99.9768 8.9544C99.8084 7.58803 99.3314 6.44939 98.5459 5.53848C98.0408 5.05456 97.3254 4.28598 96.3995 3.23274C99.4016 2.52109 102.74 1.9233 106.416 1.43938C106.528 9.80838 106.668 18.1062 106.837 26.3329Z" fill="#2F5DFF"/>
<path d="M140 21.5506C132.116 26.9307 125.775 29.6207 120.977 29.6207C118.003 29.6207 115.717 28.8237 114.117 27.2296C112.518 25.6355 111.719 23.3297 111.719 20.3123C111.719 15.4162 113.486 10.7051 117.021 6.17897C116.152 6.52056 114.861 7.04718 113.149 7.75883C110.821 7.04718 108.408 5.49578 105.911 3.10464C113.963 1.85213 124.611 1.12625 137.854 0.92699C133.308 1.86637 130.447 2.47839 129.268 2.76305C126.042 3.4747 123.208 4.20058 120.767 4.9407C118.522 6.93332 117.4 9.83685 117.4 13.6513C117.4 16.8679 118.284 19.5011 120.052 21.5506C121.847 23.6002 124.316 24.6249 127.459 24.6249C130.657 24.6249 134.795 23.0308 139.874 19.8426L140 21.5506Z" fill="#2F5DFF"/>
</g>
<defs>
<filter id="filter0_d_14_109" x="0" y="0.5" width="150" height="98" filterUnits="userSpaceOnUse" color-interpolation-filters="sRGB">
<feFlood flood-opacity="0" result="BackgroundImageFix"/>
<feColorMatrix in="SourceAlpha" type="matrix" values="0 0 0 0 0 0 0 0 0 0 0 0 0 0 0 0 0 0 127 0" result="hardAlpha"/>
<feOffset dx="2" dy="9"/>
<feGaussianBlur stdDeviation="4"/>
<feComposite in2="hardAlpha" operator="out"/>
<feColorMatrix type="matrix" values="0 0 0 0 0 0 0 0 0 0 0 0 0 0 0 0 0 0 0.25 0"/>
<feBlend mode="normal" in2="BackgroundImageFix" result="effect1_dropShadow_14_109"/>
<feBlend mode="normal" in="SourceGraphic" in2="effect1_dropShadow_14_109" result="shape"/>
</filter>
</defs>
</svg>
